<?xml version="1.0" standalone="no"?>
<!DOCTYPE svg PUBLIC "-//W3C//DTD SVG 1.1//EN" "http://www.w3.org/Graphics/SVG/1.1/DTD/svg11.dtd" >
<svg xmlns="http://www.w3.org/2000/svg" xmlns:xlink="http://www.w3.org/1999/xlink" version="1.1">
<metadata></metadata>
<defs>
<font id="public_sanslight_italic" horiz-adv-x="1366" >
<font-face units-per-em="2048" ascent="1597" descent="-451" />
<missing-glyph horiz-adv-x="497" />
<glyph unicode="&#xfb01;" horiz-adv-x="1304" d="M133 940l19 119h215l24 168q38 254 271 254h178l-17 -117h-151q-62 0 -91 -34.5t-40 -110.5l-23 -160h252l-18 -119h-248l-133 -940h-156l135 940h-217zM887 0l151 1059h154l-150 -1059h-155zM1065 1290l27 176h165l-26 -176h-166z" />
<glyph unicode="&#xfb02;" horiz-adv-x="1345" d="M133 940l19 119h215l24 168q38 254 271 254h178l-17 -117h-151q-62 0 -91 -34.5t-40 -110.5l-23 -160h252l-18 -119h-248l-133 -940h-156l135 940h-217zM904 160.5q-5 50.5 5 105.5l181 1256h153l-178 -1243q-23 -163 88 -170h53l-14 -107q-54 -14 -86 -14 q-70 0 -115.5 23t-63.5 61t-23 88.5z" />
<glyph horiz-adv-x="55" />
<glyph horiz-adv-x="55" />
<glyph horiz-adv-x="682" />
<glyph unicode="&#xd;" horiz-adv-x="475" />
<glyph unicode=" "  horiz-adv-x="497" />
<glyph unicode="&#x09;" horiz-adv-x="497" />
<glyph unicode="&#xa0;" horiz-adv-x="497" />
<glyph unicode="!" horiz-adv-x="489" d="M68 0l30 217h191l-33 -217h-188zM162 354l121 1127h186l-203 -1127h-104z" />
<glyph unicode="&#x22;" horiz-adv-x="831" d="M264 1028l12 453h201l-119 -453h-94zM604 1028l12 453h201l-119 -453h-94z" />
<glyph unicode="#" horiz-adv-x="1183" d="M88 485v105h256l49 315h-239v105h256l71 473l105 -13l-70 -460h309l72 473l104 -13l-69 -460h219v-105h-236l-47 -315h217v-105h-233l-74 -489l-106 16l71 473h-307l-74 -489l-106 16l72 473h-240zM453 590h307l49 315h-309z" />
<glyph unicode="$" horiz-adv-x="1271" d="M106 369l162 14q13 -129 99 -195.5t227 -66.5q85 0 163.5 30.5t133.5 89.5t65 134q15 101 -31.5 164t-162.5 100l-234 72q-318 92 -278 362q25 170 155.5 286t321.5 136l31 211h147l-31 -211q166 -23 252 -138t72 -270l-158 -12q-6 285 -262 285q-130 0 -236 -72 t-124 -201q-12 -84 35.5 -132.5t185.5 -96.5l221 -74q307 -100 262 -407q-23 -159 -154 -266.5t-323 -126.5l-29 -203h-147l31 203q-185 18 -289.5 116.5t-104.5 268.5z" />
<glyph unicode="%" horiz-adv-x="1703" d="M190 1079q27 194 133 309t244 115q139 0 211 -114.5t45 -309.5q-29 -195 -131.5 -308.5t-242.5 -113.5t-213 114t-46 308zM279 -8l890 1130l381 375l-886 -1128zM305 1079q-21 -148 20.5 -238.5t135.5 -90.5t159.5 90t86.5 239q22 149 -19.5 240.5t-134.5 91.5 q-92 0 -159 -91.5t-89 -240.5zM938 403q27 193 132.5 308.5t244.5 115.5t210 -115t44 -309q-27 -195 -130.5 -309t-242.5 -114t-212 114.5t-46 308.5zM1053 401q-21 -143 21.5 -234t133.5 -91q90 0 158 91t88 234q20 146 -22 239t-132 93t-158 -94t-89 -238z" />
<glyph unicode="&#x26;" horiz-adv-x="1337" d="M66 373q20 140 114 246t275 200q-74 99 -105 185t-18 180q21 137 130.5 228t262.5 91t249 -86.5t75 -226.5q-6 -40 -26 -82.5t-61.5 -95t-119.5 -111.5t-185 -115l267 -409q52 60 107 166.5t81 242.5h150q-36 -149 -103.5 -265t-169.5 -240l185 -281h-181l-114 170 q-225 -180 -455 -180q-195 0 -289 105t-69 278zM233 373q-12 -113 57.5 -182.5t182.5 -69.5q85 0 175.5 40t166.5 109l-295 451q-123 -67 -199.5 -155t-87.5 -193zM487 1192q-9 -73 19.5 -146t66.5 -126l27 -39q166 94 230.5 163.5t74.5 143.5q16 102 -42 151.5t-152 49.5 q-90 -1 -151.5 -59t-72.5 -138z" />
<glyph unicode="'" horiz-adv-x="491" d="M266 1028l13 453h200l-119 -453h-94z" />
<glyph unicode="(" horiz-adv-x="585" d="M167.5 201.5q-34.5 209.5 0.5 455.5q34 243 140.5 477t262.5 435h105q-292 -469 -357 -914q-60 -427 82 -897h-104q-95 234 -129.5 443.5z" />
<glyph unicode=")" horiz-adv-x="600" d="M-68 -246q294 466 357 914q32 237 11.5 449t-91.5 448h104q95 -234 129.5 -443.5t-0.5 -455.5q-35 -242 -142.5 -477t-262.5 -435h-105z" />
<glyph unicode="*" horiz-adv-x="761" d="M147 1194l37 106l250 -98l-16 279h123l-17 -281l254 109l33 -105l-256 -82l184 -227l-100 -72l-158 252l-162 -260l-100 68l189 237z" />
<glyph unicode="+" horiz-adv-x="1069" d="M150 680l18 127h344l53 369h123l-53 -367h344l-18 -127h-343l-53 -367h-123l52 365h-344z" />
<glyph unicode="," horiz-adv-x="462" d="M-23 -250l142 246l-80 4l31 211h206l-24 -182l-197 -279h-78z" />
<glyph unicode="-" horiz-adv-x="743" d="M121 463l16 131l479 2l-16 -131z" />
<glyph unicode="." horiz-adv-x="432" d="M41 0l33 219h190l-33 -219h-190z" />
<glyph unicode="/" horiz-adv-x="667" d="M-59 -90l704 1571h125l-704 -1571h-125z" />
<glyph unicode="0" horiz-adv-x="1173" d="M129 735q54 373 212.5 569.5t383.5 196.5q226 0 328 -195.5t49 -568.5q-53 -372 -209.5 -564.5t-384.5 -192.5q-229 0 -330.5 192t-48.5 563zM295 737q-45 -318 15 -467t218 -149q159 0 259.5 147.5t146.5 468.5q45 324 -13.5 474.5t-215.5 150.5q-320 0 -410 -625z" />
<glyph unicode="1" horiz-adv-x="790" d="M190 1198l15 111q124 0 197 19.5t105 55t44 97.5h113l-213 -1481h-160l172 1198h-273z" />
<glyph unicode="2" horiz-adv-x="1169" d="M66 0l16 106l8 58q12 85 48 157.5t86 125.5t112 99t129 84t133.5 74t127.5 75.5t110 82.5t82.5 100.5t42.5 124.5q17 121 -52 195t-202 74q-139 0 -237.5 -85.5t-129.5 -226.5h-156q16 95 60.5 177t113.5 145t166.5 99t212.5 36q202 0 307.5 -113.5t79.5 -300.5 q-16 -108 -69 -195.5t-125.5 -145.5t-157.5 -107.5t-169.5 -94.5t-155.5 -94t-121 -118t-62 -154l-4 -33h737l-22 -145h-909z" />
<glyph unicode="3" horiz-adv-x="1191" d="M74 418h155q0 -140 77.5 -218.5t213.5 -78.5q159 0 265.5 78.5t125.5 206.5q13 94 -27 161.5t-117.5 100.5t-182.5 34l-121 3l18 139l119 2q141 1 250.5 82t124.5 190q14 102 -59.5 174t-217.5 72q-126 0 -229.5 -79t-128.5 -228h-156q30 203 182 323.5t351 120.5 q217 0 333.5 -100.5t92.5 -276.5q-15 -113 -96.5 -202t-221.5 -138q139 -42 206 -140t46 -238q-18 -130 -99.5 -228t-207.5 -149t-278 -49q-209 2 -325 121t-93 317z" />
<glyph unicode="4" horiz-adv-x="1202" d="M68 391l22 154l784 936h160l-135 -944h234l-21 -146h-235l-56 -391h-151l55 391h-657zM240 537h501l105 727z" />
<glyph unicode="5" horiz-adv-x="1249" d="M82 367l145 49q30 -137 117 -218t221 -81q156 0 262 96.5t131 265.5q23 155 -58.5 251.5t-217.5 96.5q-99 0 -175 -31.5t-165 -125.5q-8 -4 -14 0l-131 37l174 774h815l-25 -142h-676l-112 -512q144 138 358 138q93 0 171 -31.5t134 -90t80 -151t8 -207.5 q-34 -230 -189 -367.5t-380 -137.5q-189 0 -318.5 107t-154.5 280z" />
<glyph unicode="6" horiz-adv-x="1185" d="M129 733q52 361 221 570.5t424 209.5q173 0 283 -99.5t110 -272.5h-147q-12 110 -80.5 172.5t-181.5 62.5q-193 0 -313 -173.5t-152 -508.5q54 124 165.5 200.5t239.5 76.5q206 0 312.5 -127t74.5 -346q-31 -226 -178.5 -365t-363.5 -139q-239 0 -351.5 197t-62.5 542z M299 535q-26 -178 46 -292t216 -114q135 0 234.5 99.5t124.5 260.5q22 163 -44.5 255t-216.5 92q-124 0 -233.5 -89.5t-126.5 -211.5z" />
<glyph unicode="7" horiz-adv-x="1136" d="M205 1339l20 142h961l-21 -142q-222 -274 -446.5 -688.5t-288.5 -650.5h-168q78 252 272.5 628t456.5 711h-786z" />
<glyph unicode="8" horiz-adv-x="1251" d="M86 414q18 127 122 238.5t216 133.5q-208 96 -176 322q26 186 170.5 292.5t347.5 106.5q202 0 316 -106.5t87 -292.5q-34 -226 -268 -322q106 -22 178 -133.5t54 -238.5q-28 -191 -187 -305.5t-397 -114.5t-364.5 115t-98.5 305zM254 414q-19 -131 66.5 -209t246.5 -78 q163 0 271 78t127 209q19 130 -68 213.5t-248 83.5q-158 0 -267 -83.5t-128 -213.5zM408 1112q-18 -123 55 -189.5t209 -66.5q138 0 229 66.5t109 189.5q19 123 -54 196.5t-208 73.5t-228 -73t-112 -197z" />
<glyph unicode="9" horiz-adv-x="1177" d="M82 365h143q11 -107 80 -171.5t180 -64.5q197 0 322.5 170.5t159.5 517.5q-51 -127 -162 -206t-242 -79q-204 0 -309.5 127.5t-75.5 350.5q33 227 175.5 365t355.5 138q232 0 340 -196t61 -543q-53 -370 -218.5 -576t-418.5 -206q-168 0 -279 101t-112 272zM340 1018 q-22 -162 42 -254t210 -92q79 0 156.5 40t132.5 110t67 151q28 178 -44 291.5t-216 113.5q-132 0 -228.5 -99.5t-119.5 -260.5z" />
<glyph unicode=":" horiz-adv-x="432" d="M41 6l33 217h190l-33 -217h-190zM156 795l30 217h191l-31 -217h-190z" />
<glyph unicode=";" horiz-adv-x="462" d="M0 -287l147 287h-73l28 217h191l-27 -192l-198 -312h-68zM178 791l31 219h192l-32 -219h-191z" />
<glyph unicode="&#x3c;" horiz-adv-x="1054" d="M143 635l23 151l842 336l-21 -157l-643 -254l567 -254l-20 -152z" />
<glyph unicode="=" horiz-adv-x="1071" d="M115 428l18 127l811 2l-18 -127zM178 879l19 127l813 2l-19 -127z" />
<glyph unicode="&#x3e;" horiz-adv-x="1052" d="M98 305l23 152l641 254l-569 254l22 157l746 -336l-23 -151z" />
<glyph unicode="?" horiz-adv-x="1026" d="M150 1217q79 133 209.5 208.5t281.5 75.5q191 0 291.5 -98.5t77.5 -257.5q-10 -71 -40.5 -135t-71.5 -114t-89 -97t-96.5 -94.5t-89.5 -97.5t-72 -114t-41 -135h-133q11 79 41 150.5t69.5 125.5t85 104t90.5 96t83 91.5t66 100.5t36 113q15 108 -47 171.5t-180 63.5 q-97 0 -195 -59.5t-141 -145.5zM297 0l33 217h188l-31 -217h-190z" />
<glyph unicode="@" horiz-adv-x="1589" d="M92.5 322.5q-10.5 95.5 5.5 197.5q24 161 99.5 307t188 255t264 173t317.5 64q100 0 190 -23t168 -74t131 -124t75 -180.5t3 -237.5q-32 -228 -155.5 -373t-280.5 -145q-72 0 -109 26.5t-43 81.5q-3 12 -7.5 12.5t-14.5 -10.5q-115 -139 -281 -139q-108 0 -171.5 98.5 t-39.5 253.5q27 195 147.5 329t278.5 134q146 0 201 -129q0 -5 6 -1q4 2 6 9l27 70h110l-137 -459q-24 -91 -11 -125t64 -34q96 0 178.5 107t106.5 282q17 113 -1.5 205t-62 153t-108 102.5t-137 59.5t-152.5 18q-147 0 -275.5 -54.5t-220 -148.5t-151.5 -218t-80 -265 q-19 -134 6 -248.5t90 -200.5t178 -135t263 -49q81 0 150.5 19.5t110.5 42.5t109 69l52 -90q-215 -153 -463 -153q-112 0 -208 26.5t-167.5 75.5t-126 117t-83.5 150.5t-39.5 178zM567 496q-17 -111 15 -175.5t106 -64.5q91 0 174.5 83.5t114.5 199.5q37 136 -4 212t-123 76 q-104 0 -184 -96t-99 -235z" />
<glyph unicode="A" d="M16 0l717 1481h178l291 -1481h-158l-81 422h-584l-205 -422h-158zM440 573h500l-139 748z" />
<glyph unicode="B" horiz-adv-x="1296" d="M123 0l213 1481h434q249 -1 365 -99q95 -80 95 -220q0 -31 -5 -66q-19 -124 -92.5 -207.5t-219.5 -134.5q250 -56 250 -282q0 -35 -6 -75q-28 -198 -176.5 -297.5t-409.5 -99.5h-448zM299 137h289q377 0 416 264q4 26 4 49q0 43 -13 78q-20 55 -65.5 87.5t-106.5 48.5 t-137 16h-309zM395 819h312q48 0 93 7t91.5 25t82.5 46t62.5 73.5t34.5 104.5q4 25 4 48q-1 99 -71 155q-86 68 -250 68h-283z" />
<glyph unicode="C" horiz-adv-x="1349" d="M160 741q51 358 231 559t453 201q109 0 198.5 -34.5t147.5 -94.5t88 -140q27 -70 27 -148v-21l-166 -10q-6 140 -86 222.5t-232 82.5q-197 0 -322 -155t-167 -464q-15 -106 -16 -194q0 -163 54 -265q82 -156 287 -157q130 0 233.5 80.5t153.5 218.5l160 -19 q-45 -182 -201 -302.5t-366 -120.5q-278 0 -403 202q-89 143 -89 365q0 91 15 194z" />
<glyph unicode="D" horiz-adv-x="1345" d="M123 0l213 1481q186 0 301 -2q375 -4 523 -185q109 -133 109 -365q0 -83 -14 -179q-54 -377 -263 -563.5t-586 -186.5h-283zM303 141h123q287 0 454.5 142t213.5 462q11 95 11 172q-1 15 -1 29q-2 88 -28.5 153.5t-67 111.5t-102.5 74.5t-135.5 41t-166.5 12.5h-129z" />
<glyph unicode="E" horiz-adv-x="1216" d="M123 0l213 1481h858l-20 -144h-705l-74 -518h639l-20 -143h-639l-76 -529l725 -2l-23 -145h-878z" />
<glyph unicode="F" horiz-adv-x="1132" d="M123 0l213 1481h846l-21 -144h-688l-72 -520h621l-21 -143h-622l-96 -674h-160z" />
<glyph unicode="G" horiz-adv-x="1427" d="M160 735q51 359 238.5 562.5t457.5 203.5q200 0 332 -129q120 -119 120 -276q0 -14 -1 -29l-172 -12q-3 130 -85.5 215.5t-215.5 85.5q-196 0 -331 -158.5t-177 -449.5q-14 -99 -14 -183q0 -175 62 -281q90 -157 288 -157q88 0 165 35.5t128.5 91.5t85 119.5t44.5 126.5 l25 141h-350l18 121h508l-108 -762h-121l35 236q-176 -256 -461 -256q-270 0 -396 202q-90 143 -90 363q0 89 15 190z" />
<glyph unicode="H" horiz-adv-x="1376" d="M123 0l213 1481h156l-93 -641h676l90 641h156l-213 -1481h-156l101 696h-676l-98 -696h-156z" />
<glyph unicode="I" horiz-adv-x="544" d="M123 0l211 1481h155l-210 -1481h-156z" />
<glyph unicode="J" horiz-adv-x="747" d="M-20 29l36 155q8 -3 30 -14t37 -17t42.5 -12t56.5 -6q92 0 136 55t61 189l158 1102h155l-166 -1149q-25 -178 -98.5 -265t-230.5 -87q-115 0 -217 49z" />
<glyph unicode="K" horiz-adv-x="1306" d="M123 0l213 1481h160l-111 -791l762 791h186l-553 -580l381 -901h-178l-338 782l-291 -305l-69 -477h-162z" />
<glyph unicode="L" horiz-adv-x="1093" d="M123 0l213 1481h160l-191 -1334h668l-21 -147h-829z" />
<glyph unicode="M" horiz-adv-x="1697" d="M123 0l211 1481h211l260 -1268l631 1268h206l-210 -1481h-162l174 1214l-592 -1214h-154l-243 1202l-172 -1202h-160z" />
<glyph unicode="N" horiz-adv-x="1452" d="M123 0l213 1481h145l588 -1196l172 1196h154l-213 -1481h-138l-593 1208l-172 -1208h-156z" />
<glyph unicode="O" horiz-adv-x="1447" d="M160 735q52 364 239 565t465 201q276 0 405 -200q92 -143 91 -368q0 -91 -14 -196q-52 -361 -238 -559t-463 -198q-281 0 -409 197q-91 140 -91 364q0 90 15 194zM330 735q-14 -101 -14 -185q0 -173 59 -275q88 -152 293 -152t335 151.5t173 460.5q15 108 15 197 q0 170 -56 272q-86 154 -291 154t-337 -155.5t-177 -467.5z" />
<glyph unicode="P" horiz-adv-x="1243" d="M123 0l213 1481h459q229 0 353 -121q99 -97 99 -257q0 -40 -6 -85q-32 -219 -184 -342t-373 -123h-322l-79 -553h-160zM381 694h319q154 0 261.5 89.5t128.5 244.5q4 31 4 59q0 111 -66 175q-84 81 -246 81h-307z" />
<glyph unicode="Q" horiz-adv-x="1415" d="M129 737q52 365 238 564.5t464 199.5t407 -199q92 -142 92 -368q0 -92 -15 -197q-34 -241 -125.5 -406.5t-251.5 -260.5q49 -169 244 -179l-21 -139q-277 0 -379 246q-99 -18 -168 -18q-276 0 -407 196q-93 140 -93 365q0 91 15 196zM299 733q-15 -103 -15 -189 q0 -421 351 -421q425 0 510 614q15 106 15 194q0 168 -56 271q-87 156 -293 156t-337 -157t-175 -468z" />
<glyph unicode="R" horiz-adv-x="1316" d="M123 0l213 1481h526q218 -1 318 -103q78 -81 79 -214q0 -36 -6 -77q-43 -299 -333 -401l178 -686h-164l-166 655h-395l-94 -655h-156zM391 793h316q346 0 385 282q5 31 5 58q1 93 -53 145q-68 68 -213 68h-360z" />
<glyph unicode="S" horiz-adv-x="1341" d="M106 369l164 14q7 -127 103.5 -196.5t240.5 -69.5q160 0 271.5 70.5t128.5 187.5q3 23 3 45q0 76 -41 129q-53 69 -171 98l-275 72q-286 72 -286 298q0 27 4 56q28 187 184.5 306.5t374.5 119.5q117 0 206.5 -34t142.5 -92q53 -59 78 -131q22 -62 22 -132q0 -11 -1 -23 l-157 -12q-1 77 -25 133.5t-68 89t-98.5 47.5t-122.5 15q-131 0 -239.5 -72.5t-126.5 -200.5q-2 -17 -2 -33q0 -64 38 -106q48 -52 185 -90l264 -72q281 -72 280 -331q0 -37 -5 -78q-24 -170 -181.5 -283.5t-400.5 -113.5q-100 0 -188 25.5t-155.5 73.5t-107 122.5 t-39.5 167.5z" />
<glyph unicode="T" horiz-adv-x="1099" d="M143 1331l23 150h1036l-20 -150h-428l-191 -1331h-155l190 1331h-455z" />
<glyph unicode="U" horiz-adv-x="1382" d="M197 520l137 961h160l-142 -992q-7 -48 -7 -90q0 -116 53 -185q72 -93 237 -93q167 0 268 92t127 276l141 992h156l-141 -983q-72 -518 -572 -518q-258 0 -357 134q-71 96 -71 264q0 65 11 142z" />
<glyph unicode="V" horiz-adv-x="1228" d="M162 1481h153l242 -1301l623 1301h153l-708 -1481h-189z" />
<glyph unicode="W" horiz-adv-x="1841" d="M186 1481h160l141 -1233l502 1233h125l150 -1233l501 1233h156l-616 -1481h-152l-143 1196l-492 -1196h-145z" />
<glyph unicode="X" horiz-adv-x="1251" d="M-20 0l581 758l-350 723h197l274 -584l442 584h174l-548 -709l372 -772h-192l-299 627l-475 -627h-176z" />
<glyph unicode="Y" horiz-adv-x="1128" d="M152 1481h167l281 -703l475 703h168l-588 -848l-92 -633h-151l88 633z" />
<glyph unicode="Z" horiz-adv-x="1208" d="M35 0l14 94l950 1245h-743l20 142h959l-12 -90l-959 -1248h778l-22 -143h-985z" />
<glyph unicode="[" horiz-adv-x="587" d="M74 -330l256 1811h340l-17 -109h-200l-228 -1593h199l-14 -109h-336z" />
<glyph unicode="\" horiz-adv-x="659" d="M160 1481h123l256 -1571h-127z" />
<glyph unicode="]" horiz-adv-x="620" d="M-76 -330l17 109h200l228 1593h-199l14 109h336l-256 -1811h-340z" />
<glyph unicode="^" horiz-adv-x="917" d="M61 268l388 738q23 45 53.5 63t57 1.5t38.5 -64.5l178 -740h-131l-139 619l-320 -617h-125z" />
<glyph unicode="_" horiz-adv-x="997" d="M23 -231l18 129l737 2l-20 -131h-735z" />
<glyph unicode="`" horiz-adv-x="548" d="M135 1370l62 129l436 -196l-41 -86z" />
<glyph unicode="a" horiz-adv-x="1062" d="M61 283q26 178 152.5 262t380.5 90l188 6l13 88q4 24 4 46q-1 74 -45 121q-58 60 -166 60q-95 0 -171 -50t-106 -142h-141q29 136 148.5 225.5t293.5 89.5q183 0 270 -91q69 -72 69 -187q0 -30 -5 -64l-104 -737h-133l16 197q-134 -217 -381 -217q-148 0 -226 81 q-62 64 -61 167q0 26 4 55zM215 297q-2 -17 -2 -33q1 -70 43 -112q52 -52 150 -52q107 0 213.5 77t119.5 169l27 189l-156 -3q-190 -5 -283 -59t-112 -176z" />
<glyph unicode="b" horiz-adv-x="1155" d="M98 0l217 1522h154l-92 -652q130 209 356 209q133 0 214.5 -73t106.5 -193q13 -64 14 -138q0 -66 -11 -140q-37 -260 -164.5 -407.5t-327.5 -147.5q-65 0 -117.5 17t-83.5 41t-54.5 57t-33.5 57t-16 49l-43 -201h-119zM311 410q-3 -23 -3 -45q0 -99 54 -171 q66 -88 193 -88q132 0 222 106.5t120 322.5q10 67 10 124q-1 111 -39 183q-58 108 -196 108q-69 0 -126 -24t-90 -56t-58.5 -77t-36 -75.5t-17.5 -62.5z" />
<glyph unicode="c" horiz-adv-x="1038" d="M98 524q36 247 180.5 401t348.5 154q153 0 248.5 -90t95.5 -250l-142 -4q-9 103 -66 158t-147 55q-142 0 -241 -114t-127 -306q-8 -57 -8 -107q0 -119 47 -201q67 -116 209 -116q92 0 167 57t109 154h135q-45 -162 -165.5 -248.5t-272.5 -86.5q-203 0 -305 150 q-75 112 -75 275q0 56 9 119z" />
<glyph unicode="d" horiz-adv-x="1144" d="M98 535q23 158 82.5 278t162 193t235.5 73q56 0 104.5 -14t80 -34t57 -47t38.5 -48.5t21 -42.5l90 629h155l-219 -1522h-121l17 217q-13 -28 -29 -53.5t-48.5 -61t-70.5 -61t-96.5 -43.5t-126.5 -18q-199 0 -284 148q-59 103 -59 260q0 68 11 147zM254 535 q-10 -73 -10 -133q0 -120 40 -190q61 -106 191 -106q126 0 219.5 85.5t112.5 203.5l39 271q1 28 -2.5 59.5t-18.5 73t-40.5 74t-74 55t-112.5 22.5q-138 0 -227 -107.5t-117 -307.5z" />
<glyph unicode="e" horiz-adv-x="1067" d="M96 520q36 256 176.5 407.5t350.5 151.5q203 -1 295 -139q66 -99 66 -252q0 -60 -11 -129l-8 -67h-719q-6 -46 -6 -87q0 -111 45 -189q62 -107 209 -107q203 0 290 194h146q-39 -107 -111 -181t-158.5 -108t-183.5 -34q-207 0 -312 144q-78 108 -78 275q0 57 9 121z M264 606h567q7 44 7 84q0 98 -42 166q-58 96 -194 96q-95 0 -169.5 -52t-115 -128.5t-53.5 -165.5z" />
<glyph unicode="f" horiz-adv-x="774" d="M133 940l19 119h215l24 168q38 254 271 254h178l-17 -117h-151q-62 0 -91 -34.5t-40 -110.5l-23 -160h252l-18 -119h-248l-133 -940h-156l135 940h-217z" />
<glyph unicode="g" horiz-adv-x="1191" d="M-4 -68q6 44 27.5 82t52 64.5t56 44.5t53 32.5t30.5 16.5q-4 3 -13 9t-14 10t-14.5 11.5t-14 13.5t-11.5 15.5t-8.5 18.5t-4 22.5t1.5 26.5q6 49 55.5 89t135.5 61q-89 53 -122 123q-23 50 -23 116q0 25 3 51q23 156 151.5 246t319.5 90q93 0 157 -23t116 -71 q23 9 132 55t128 54l-25 -160l-178 -37q16 -61 16 -109q0 -24 -4 -45q-20 -142 -137.5 -235.5t-314.5 -93.5q-37 0 -49 2q-105 -3 -154.5 -25.5t-54.5 -54.5q-4 -30 35.5 -43t148.5 -21q22 -2 54.5 -4t80.5 -5t82 -5q158 -10 226 -84q53 -58 53 -149q0 -24 -4 -50 q-20 -150 -158 -235.5t-367 -85.5q-233 0 -349 76q-98 63 -98 167q0 19 3 39zM152 -49q-1 -12 -1 -23q0 -78 73 -121q85 -49 259 -49q152 0 232.5 47.5t95.5 145.5q2 14 2 27q0 56 -31 88q-39 41 -137 47l-287 20h-6q-57 0 -121 -51q-68 -54 -79 -131zM342 739 q-3 -22 -3 -42q0 -76 46 -121q58 -58 182 -58q125 0 197.5 56.5t87.5 164.5q4 25 4 47q0 77 -47 124q-60 61 -176 61q-123 0 -200 -62t-91 -170z" />
<glyph unicode="h" horiz-adv-x="1150" d="M98 0l219 1522h150l-88 -615q51 74 139 121t203 47q147 0 234 -87q71 -71 70 -173q0 -24 -3 -49l-111 -766h-153l104 731q2 18 2 35q0 72 -44 118q-56 56 -161 56q-74 0 -137.5 -23.5t-109.5 -75t-56 -124.5l-104 -717h-154z" />
<glyph unicode="i" horiz-adv-x="528" d="M113 0l151 1059h154l-150 -1059h-155zM291 1290l26 176h166l-26 -176h-166z" />
<glyph unicode="j" horiz-adv-x="509" d="M-170 -317l16 106l103 4q71 5 104 39t43 113l160 1114h156l-162 -1122q-21 -146 -88 -211.5t-211 -65.5q-48 0 -78.5 6t-36.5 12zM285 1290l24 176h166l-24 -176h-166z" />
<glyph unicode="k" horiz-adv-x="1101" d="M98 0l219 1522h152l-143 -1018l569 555h182l-415 -397l288 -662h-166l-241 553l-246 -236l-45 -317h-154z" />
<glyph unicode="l" horiz-adv-x="571" d="M130 160q-2 17 -2 35q0 35 7 71l180 1256h154l-178 -1243q-4 -28 -4 -51q0 -113 92 -119h53l-14 -107q-54 -14 -86 -14q-70 0 -115.5 23t-63.5 61t-23 88z" />
<glyph unicode="m" horiz-adv-x="1693" d="M98 0l150 1059h149l-22 -150q126 170 321 170q90 0 166 -44t99 -124q59 78 145.5 123t181.5 45q37 0 71 -6.5t70 -23t62 -44t46.5 -70t24.5 -100.5q1 -16 0 -34q0 -46 -6 -101l-100 -700h-153l100 690q5 38 5 70q0 190 -181 190q-98 0 -176 -56.5t-97 -180.5l-102 -713 h-152l107 752q2 17 2 33q-1 71 -47 113q-58 52 -137 52q-43 0 -85 -13t-81 -38.5t-67 -70t-36 -101.5l-106 -727h-152z" />
<glyph unicode="n" horiz-adv-x="1146" d="M98 0l152 1059h147l-20 -150q123 166 340 166q152 1 236 -99q64 -75 64 -198q0 -39 -7 -84l-99 -694h-155l98 680q5 32 5 60q1 82 -39 132q-52 68 -158 68q-75 0 -140 -23t-111.5 -74.5t-56.5 -123.5l-102 -719h-154z" />
<glyph unicode="o" horiz-adv-x="1091" d="M98 522q36 249 179.5 403t351.5 154q138 0 229 -71q92 -72 126 -196q21 -74 20 -162q0 -59 -9 -124q-36 -246 -176.5 -396t-349.5 -150q-211 0 -309 149q-72 109 -72 269q0 59 10 124zM252 528q-8 -57 -8 -107q0 -115 42 -196q60 -116 206 -116q97 0 171.5 55.5t117 148 t59.5 215.5q8 64 8 120q0 53 -7 98q-15 94 -75 149t-158 55q-145 0 -237 -116t-119 -306z" />
<glyph unicode="p" horiz-adv-x="1153" d="M51 -330l199 1389h151l-22 -150q23 24 39 40t51 43.5t68 44t81 29.5t99 13q88 0 158 -33t118 -99t65 -167q8 -48 8 -105q0 -61 -9 -130q-38 -262 -183 -413.5t-342 -151.5q-173 0 -260 165l-67 -475h-154zM293 268q83 -162 237 -162q139 0 243.5 116t131.5 317 q8 57 8 106q0 124 -52 199q-73 106 -202 106q-113 0 -204.5 -81t-102.5 -171z" />
<glyph unicode="q" horiz-adv-x="1142" d="M98 545q37 259 174 396.5t320 137.5q59 0 108 -15t84.5 -43t52.5 -46t39 -46q5 -6 7 -9l20 139h152l-199 -1389h-154l72 502q-56 -93 -138 -142.5t-183 -49.5q-196 0 -293 150q-72 110 -72 281q0 63 10 134zM256 541q-8 -57 -8 -107q0 -129 51 -215q70 -119 209 -119 q84 0 151 48.5t103 118.5t47 149l37 264q3 20 3 40q0 48 -17 92q-24 63 -80.5 103.5t-133.5 40.5q-131 0 -232 -105.5t-130 -309.5z" />
<glyph unicode="r" horiz-adv-x="741" d="M98 0l152 1059h147l-28 -191q54 93 159 152t240 59l-25 -155q-18 1 -35 1q-158 1 -245 -59q-97 -66 -113 -186l-98 -680h-154z" />
<glyph unicode="s" horiz-adv-x="995" d="M68 301h147q4 -97 67.5 -146t163.5 -49q107 0 177 46t82 129q1 11 1 21q0 100 -124 136l-195 60q-121 36 -177 98q-44 49 -44 125q0 22 4 47q21 148 135 229.5t281 81.5q158 0 242 -79q70 -66 70 -173q0 -22 -3 -45h-139v6q0 74 -50 118q-52 46 -143 46q-56 0 -105.5 -14 t-93 -55.5t-51.5 -106.5l-2 -18q0 -44 31 -72q36 -34 119 -59l201 -58q60 -18 101 -49.5t59 -69.5q16 -38 24 -80q4 -21 4 -40q0 -21 -4 -41q-21 -146 -139 -227.5t-279 -81.5q-163 0 -263 83q-97 81 -97 229v9z" />
<glyph unicode="t" horiz-adv-x="704" d="M113 940l18 119h164l74 305h123l-43 -305h225l-17 -119h-227l-96 -676q-4 -28 -4 -49q0 -27 6 -43q10 -30 33.5 -39.5t74.5 -9.5h103l-17 -111q-43 -16 -143 -16q-139 0 -185 62q-32 43 -32 119q0 34 6 75l98 688h-161z" />
<glyph unicode="u" horiz-adv-x="1140" d="M137 346l105 717h153l-100 -703q-4 -27 -4 -51q-1 -37 9 -67q16 -50 50 -77.5t73 -40.5t83 -13q107 0 191.5 68t103.5 194l98 690h154l-152 -1061h-125l12 201q-27 -72 -80 -123.5t-117 -75.5q-61 -23 -126 -22h-6q-51 0 -100 12t-94.5 40t-77.5 68q-33 41 -47 104 q-8 36 -8 76q0 31 5 64z" />
<glyph unicode="v" horiz-adv-x="974" d="M131 1059h148l149 -862h18l402 862h145l-508 -1059h-151z" />
<glyph unicode="w" horiz-adv-x="1511" d="M137 1059h148l112 -856h17l356 856h121l121 -854h18l346 854h146l-447 -1059h-162l-120 819l-338 -819h-166z" />
<glyph unicode="x" horiz-adv-x="1085" d="M-2 0l461 551l-279 508h170l215 -391l326 391h170l-426 -508l305 -551h-170l-240 434l-360 -434h-172z" />
<glyph unicode="y" horiz-adv-x="1028" d="M-23 -315l15 104h104h12q58 0 101 17q47 20 67.5 43.5t38.5 58.5l56 112l-240 1039h156l184 -852l424 852h152l-588 -1159q-70 -131 -152 -184.5t-188 -53.5q-49 0 -84.5 6t-46.5 12z" />
<glyph unicode="z" horiz-adv-x="983" d="M25 0l14 106l704 840h-542l16 113h729l-16 -109l-703 -835h592l-14 -115h-780z" />
<glyph unicode="{" horiz-adv-x="610" d="M14 526l17 105q108 1 170 58t75 151l64 440q13 92 86.5 146.5t179.5 54.5h86l-14 -109h-68q-67 0 -96 -25t-37 -79l-63 -445q-16 -109 -78.5 -169t-142.5 -68q-12 -2 -13 -7q-1 -4 8 -6h2q79 -7 124.5 -64t29.5 -173l-63 -449q-8 -59 14 -83.5t90 -24.5h64l-15 -109h-84 q-112 0 -168.5 56.5t-42.5 150.5l66 451q10 79 -39 138.5t-152 59.5z" />
<glyph unicode="|" horiz-adv-x="516" d="M78 -330l289 2022h122l-288 -2022h-123z" />
<glyph unicode="}" horiz-adv-x="622" d="M-80 -330l17 109h67q67 0 96 25t37 79l64 445q16 110 78 169.5t143 67.5q7 1 10.5 4t1.5 6.5t-10 4.5q-80 7 -125 63.5t-29 171.5l64 449q8 59 -14 83.5t-91 24.5h-63l14 109h84q112 0 168.5 -56.5t42.5 -150.5l-65 -449q-10 -80 38.5 -140t151.5 -60l-16 -105 q-109 -1 -171 -57.5t-75 -151.5l-64 -440q-13 -92 -86.5 -146.5t-179.5 -54.5h-88z" />
<glyph unicode="~" horiz-adv-x="1087" d="M147 729q73 63 133 96t138 33q59 0 117 -26t114 -52t109 -26q111 0 205 106l32 -98q-41 -54 -107 -87.5t-147 -33.5q-64 0 -121 25t-110.5 50t-108.5 25q-109 0 -221 -108z" />
<glyph unicode="&#xa1;" horiz-adv-x="491" d="M37 -330l178 1032h104l-94 -1032h-188zM190 842l31 217h189l-29 -217h-191z" />
<glyph unicode="&#xa2;" horiz-adv-x="1069" d="M139 752q32 217 152.5 364.5t294.5 181.5l10 183h117l-8 -174q145 -8 234 -97t89 -243l-141 -4q-10 103 -69 158t-150 55q-145 0 -246.5 -114t-130.5 -306q-26 -194 41.5 -309t212.5 -115q95 0 171.5 57t110.5 154h140q-35 -120 -113.5 -199.5t-183.5 -114.5l-13 -229 h-116l10 209q-10 -2 -33 -2q-208 0 -311 150.5t-68 394.5z" />
<glyph unicode="&#xa3;" horiz-adv-x="1171" d="M-45 0l18 139h76q77 0 137 76t82 225q15 105 15 267h-195l16 108h177l-9 166q-7 117 29.5 217t102 165t150.5 101.5t177 36.5q129 0 225 -65.5t121 -163.5l-145 -53q-24 72 -71 106.5t-132 34.5q-105 0 -183 -65t-95 -177q-18 -149 6 -301h315l-16 -108h-301 q0 -137 -19 -240q-36 -209 -160 -328h353q101 0 166 38t110 130l129 -39q-129 -270 -420 -270h-659z" />
<glyph unicode="&#xa4;" horiz-adv-x="1038" d="M96 408l127 114q-50 103 -33 223q15 115 89 205q10 15 0 29l-84 106l92 84l94 -120q99 71 217 71q109 0 184 -63q14 -9 25 2l119 108l65 -84l-129 -118q53 -101 35 -220q-16 -119 -88 -204q-9 -15 -2 -25l90 -106l-92 -84l-94 118q-109 -75 -219 -75q-111 0 -189 63 q-12 12 -24 -4l-119 -109zM315 745q-15 -101 41 -174t156 -73q97 0 174.5 73t91.5 174q15 100 -40.5 175t-153.5 75t-176.5 -75t-92.5 -175z" />
<glyph unicode="&#xa5;" horiz-adv-x="1157" d="M150 1481h200l279 -701l481 701h166l-563 -793h274l-14 -106h-295l-27 -189h293l-16 -106h-293l-41 -287h-176l41 285h-295l14 106h295l27 189h-295l16 106h258z" />
<glyph unicode="&#xa6;" horiz-adv-x="516" d="M78 -330l117 817h122l-116 -817h-123zM250 874l117 818h122l-116 -818h-123z" />
<glyph unicode="&#xa7;" horiz-adv-x="946" d="M18 92l113 60q36 -81 108 -130t173 -49q98 0 165.5 41.5t77.5 116.5q8 58 -28 105t-138 94l-159 69q-119 52 -167 123t-34 168q13 92 75.5 160.5t155.5 105.5q-98 60 -129.5 124t-21.5 143q19 120 128.5 199t266.5 79q121 0 208.5 -58.5t127.5 -146.5l-115 -59 q-88 147 -229 147q-102 0 -165.5 -40.5t-72.5 -108.5q-14 -105 134 -174l151 -68q137 -63 190.5 -142t38.5 -185q-12 -93 -67.5 -154.5t-142.5 -105.5q82 -54 117.5 -117t25.5 -146q-21 -127 -132.5 -206.5t-279.5 -79.5q-135 0 -237 65t-138 170zM270 711q-9 -59 21 -99 t125 -84l110 -55q72 -6 134 46t71 124q6 71 -22 118t-117 87l-103 45q-81 -6 -145.5 -60.5t-73.5 -121.5z" />
<glyph unicode="&#xa8;" horiz-adv-x="477" d="M109 1290l24 176h168l-27 -176h-165zM416 1290l24 176h168l-24 -176h-168z" />
<glyph unicode="&#xa9;" horiz-adv-x="1570" d="M100 741q29 206 150 381t300.5 277t373.5 102q145 0 268 -60.5t204 -162.5t117.5 -242.5t14.5 -294.5q-30 -208 -151 -383.5t-299 -276.5t-371 -101q-146 0 -270 60t-205.5 161.5t-117.5 242.5t-14 297zM217 741q-20 -144 9.5 -266t98.5 -204.5t171.5 -128.5t226.5 -46 q121 0 236 46t208 128.5t158 204.5t86 266q20 142 -10 263.5t-99.5 204.5t-171.5 130t-223 47q-167 0 -314 -79.5t-248 -228t-128 -337.5zM455 745q26 190 146 310.5t280 120.5q201 0 282 -220l-123 -34q-54 147 -170 147q-102 0 -179 -87t-97 -232q-23 -149 30 -236.5 t158 -87.5q144 0 240 158l86 -39q-62 -98 -151.5 -162t-198.5 -64q-162 0 -246.5 118t-56.5 308z" />
<glyph unicode="&#xaa;" horiz-adv-x="780" d="M164 995q13 96 98.5 153t233.5 69l114 10l6 49q17 133 -124 133q-55 0 -96 -22t-81 -78l-90 30q93 158 285 158q120 0 172.5 -58.5t38.5 -164.5l-35 -238q-10 -82 -10 -137v-76h-109l-4 90q-58 -54 -109.5 -78t-111.5 -24q-96 0 -143 48.5t-35 135.5zM272 1001 q-6 -49 25 -77.5t90 -28.5q73 0 135 53q57 47 62 88l14 113l-94 -8q-105 -7 -164 -43.5t-68 -96.5z" />
<glyph unicode="&#xab;" horiz-adv-x="864" d="M76 514l311 383h92l-258 -383l148 -367h-90zM408 514l313 383h90l-256 -383l147 -367h-90z" />
<glyph unicode="&#xac;" horiz-adv-x="1071" d="M150 680l20 127l811 2l-8 -49l-53 -369h-129l38 291z" />
<glyph unicode="&#xad;" horiz-adv-x="743" d="M121 463l16 131l479 2l-16 -131z" />
<glyph unicode="&#xae;" horiz-adv-x="1036" d="M139 1024q28 198 178.5 337.5t337.5 139.5q90 0 167 -37.5t127.5 -101.5t73.5 -152.5t9 -185.5q-19 -130 -94.5 -239.5t-187 -172.5t-232.5 -63q-187 0 -297.5 138.5t-81.5 336.5zM227 1024q-26 -176 57.5 -281.5t245.5 -105.5q159 0 273.5 105.5t140.5 281.5 q25 176 -58.5 282.5t-242.5 106.5q-163 0 -277 -106t-139 -283zM381 784l70 473h198q71 0 105.5 -30t25.5 -88q-12 -91 -110 -127l53 -228h-84l-45 222h-102l-33 -222h-78zM500 1071h110q82 0 90 59q3 29 -13.5 45.5t-63.5 16.5h-105z" />
<glyph unicode="&#xaf;" horiz-adv-x="608" d="M139 1333l17 119h551l-17 -119h-551z" />
<glyph unicode="&#xb0;" horiz-adv-x="905" d="M276 1397q20 138 116 227.5t226 89.5q128 0 199 -89.5t51 -227.5t-117 -227t-225 -89q-129 0 -199.5 89t-50.5 227zM383 1395q-11 -92 31.5 -149.5t126.5 -57.5t141.5 57.5t69.5 149.5q15 92 -27 149.5t-129 57.5q-82 0 -140.5 -57.5t-72.5 -149.5z" />
<glyph unicode="&#xb1;" horiz-adv-x="1071" d="M72 133l18 127h813l-18 -127h-813zM174 831l19 127h344l53 369h123l-54 -366h345l-19 -127h-344l-53 -367h-121l51 364h-344z" />
<glyph unicode="&#xb2;" horiz-adv-x="690" d="M102 786l11 68l6 35q10 68 43 123.5t79.5 93t100.5 69.5t108 61.5t99.5 61t77.5 75.5t39 97q11 76 -32.5 123t-127.5 47q-88 0 -149.5 -53.5t-80.5 -142.5h-98q21 124 112.5 205.5t233.5 81.5q128 0 194.5 -71.5t49.5 -189.5q-10 -68 -43.5 -123t-79 -91.5t-99 -67.5 t-106.5 -59.5t-98 -59t-76.5 -74t-38.5 -96.5l-2 -20h463l-12 -93h-574z" />
<glyph unicode="&#xb3;" horiz-adv-x="761" d="M125 1049h96q0 -89 48.5 -138t133.5 -49q101 0 168.5 49t79.5 129q12 89 -47 138t-160 49l-75 2l12 88l74 2q90 1 158 51.5t77 120.5q10 64 -36.5 109t-137.5 45q-79 0 -144 -50.5t-79 -144.5h-98q18 128 113.5 204.5t219.5 76.5q137 0 210.5 -63.5t58.5 -174.5 q-11 -71 -61.5 -127t-137.5 -86q86 -27 128.5 -88.5t29.5 -149.5q-19 -124 -120.5 -197t-248.5 -71q-132 2 -204.5 76t-57.5 199z" />
<glyph unicode="&#xb4;" horiz-adv-x="546" d="M127 1303l494 196l20 -129l-498 -153z" />
<glyph unicode="&#xb5;" horiz-adv-x="1157" d="M41 -338l205 1423h157l-108 -757q-11 -79 41 -137t139 -58q151 0 332 191l106 761h160l-158 -1085h-151l24 168q-107 -87 -178.5 -124t-146.5 -40q-132 -3 -205 70l-57 -412h-160z" />
<glyph unicode="&#xb6;" horiz-adv-x="1087" d="M168 1032q13 88 52.5 167.5t101.5 143t153 101t197 37.5h387l-15 -103h-114l-223 -1548h-105l221 1548h-92l-223 -1548h-107l113 778q-123 3 -208 61t-120 153t-18 210z" />
<glyph unicode="&#xb7;" horiz-adv-x="444" d="M131 643l31 207h205l-31 -207h-205z" />
<glyph unicode="&#xb8;" horiz-adv-x="428" d="M-104 -369l38 74q47 -47 121 -47q104 0 117 78q6 45 -27 67t-112 25q-17 0 -8 12l94 170h86l-64 -125q88 -6 121.5 -48t24.5 -99q-10 -73 -74 -114.5t-150 -41.5q-107 0 -167 49z" />
<glyph unicode="&#xb9;" horiz-adv-x="589" d="M154 1532l8 70q115 0 160.5 25t56.5 83h72l-134 -932h-100l107 754h-170z" />
<glyph unicode="&#xba;" horiz-adv-x="778" d="M186 1153q22 156 115 251t225 95q133 0 198.5 -95t43.5 -251q-21 -152 -112.5 -246t-227.5 -94t-200 94t-42 246zM301 1159q-18 -122 17.5 -189t121.5 -67q87 0 142.5 67.5t70.5 188.5q18 117 -18.5 183.5t-122.5 66.5t-141 -66.5t-70 -183.5z" />
<glyph unicode="&#xbb;" horiz-adv-x="862" d="M49 147l252 367l-147 383h90l202 -383l-309 -367h-88zM381 147l254 367l-150 383h90l203 -383l-307 -367h-90z" />
<glyph unicode="&#xbc;" horiz-adv-x="1837" d="M123 1319l8 70q115 0 160.5 25t56.5 83h72l-133 -932h-101l107 754h-170zM266 -8l795 1130l358 375l-792 -1128zM1040 246l15 96l493 590h101l-84 -594h145l-12 -92h-148l-34 -246h-97l35 246h-414zM1149 338h315l66 457z" />
<glyph unicode="&#xbd;" horiz-adv-x="1777" d="M123 1319l8 70q115 0 160.5 25t56.5 83h72l-133 -932h-101l107 754h-170zM266 -8l795 1130l358 375l-792 -1128zM1034 0l10 68l7 34q10 68 43 123.5t79.5 93t100.5 70t107.5 62t99 61t77.5 75.5t39 97q11 76 -32 123t-127 47q-88 0 -149.5 -54t-80.5 -143h-98 q21 124 112.5 205.5t233.5 81.5q129 0 195 -71.5t49 -188.5q-10 -68 -43.5 -123t-79 -91.5t-99 -67.5t-106.5 -59.5t-98 -59t-76.5 -74t-38.5 -96.5l-2 -21h463l-12 -92h-574z" />
<glyph unicode="&#xbe;" horiz-adv-x="2009" d="M94 834h96q0 -89 49 -138t134 -49q101 0 168.5 49t79.5 129q12 89 -47 138t-160 49l-76 2l12 88l74 2q90 1 158 51.5t77 120.5q10 64 -36.5 109t-137.5 45q-79 0 -144 -50.5t-79 -144.5h-98q18 128 114 204.5t220 76.5q137 0 210 -63.5t58 -174.5q-11 -71 -61.5 -127 t-137.5 -86q86 -27 128.5 -88.5t29.5 -149.5q-19 -124 -120.5 -197t-248.5 -71q-132 2 -204.5 76t-57.5 199zM438 -8l795 1130l358 375l-792 -1128zM1212 246l15 96l493 590h101l-84 -594h145l-12 -92h-148l-34 -246h-97l35 246h-414zM1321 338h315l66 457z" />
<glyph unicode="&#xbf;" horiz-adv-x="999" d="M-8 10q9 68 38 126t69 99t86.5 79.5t92.5 77t86 81t69 102t38 130.5h137q-10 -79 -39 -146.5t-67 -114.5t-82 -88.5t-88 -78.5t-81 -74t-63.5 -85.5t-33.5 -103.5q-13 -107 49.5 -170t181.5 -63q97 0 196 59.5t140 143.5l137 -50q-80 -133 -210 -208.5t-281 -75.5 q-197 0 -297 99t-78 261zM463 842l29 217h192l-31 -217h-190z" />
<glyph unicode="&#xc0;" d="M16 0l717 1481h178l291 -1481h-158l-81 422h-584l-205 -422h-158zM440 573h500l-139 748zM588 1792l61 129l436 -197l-41 -86z" />
<glyph unicode="&#xc1;" d="M16 0l717 1481h178l291 -1481h-158l-81 422h-584l-205 -422h-158zM440 573h500l-139 748zM604 1724l494 197l20 -129l-497 -154z" />
<glyph unicode="&#xc2;" d="M16 0l717 1481h178l291 -1481h-158l-81 422h-584l-205 -422h-158zM440 573h500l-139 748zM541 1683l270 226h111l202 -226h-155l-117 136l-166 -136h-145z" />
<glyph unicode="&#xc3;" d="M16 0l717 1481h178l291 -1481h-158l-81 422h-584l-205 -422h-158zM440 573h500l-139 748zM594 1819q43 36 79.5 53.5t86.5 17.5q46 0 121 -27.5t116 -27.5q61 0 136 53l16 -98q-77 -55 -168 -55q-52 0 -120 25.5t-109 25.5q-30 0 -57 -9t-41.5 -18t-41.5 -28z" />
<glyph unicode="&#xc4;" d="M16 0l717 1481h178l291 -1481h-158l-81 422h-584l-205 -422h-158zM440 573h500l-139 748zM616 1710l25 176h168l-27 -176h-166zM924 1710l24 176h168l-24 -176h-168z" />
<glyph unicode="&#xc5;" d="M16 0l717 1481h178l291 -1481h-158l-81 422h-584l-205 -422h-158zM440 573h500l-139 748zM674 1821q12 83 78.5 141.5t146.5 58.5q82 0 130.5 -59t35.5 -145q-10 -87 -76.5 -147t-148.5 -60t-130 61t-36 150zM762 1817q-6 -46 20.5 -80.5t69.5 -34.5q42 0 77.5 34.5 t43.5 80.5q6 49 -19.5 79.5t-70.5 30.5q-43 0 -78.5 -31t-42.5 -79z" />
<glyph unicode="&#xc6;" horiz-adv-x="1861" d="M-74 0l985 1481h928l-20 -142h-664l-74 -522h500l-20 -139h-500l-76 -537h686l-18 -141h-865l62 428h-483l-283 -428h-158zM453 573h417l113 787z" />
<glyph unicode="&#xc7;" horiz-adv-x="1349" d="M160 741q51 358 231 559t453 201q109 0 198.5 -34.5t147.5 -94.5t88.5 -139.5t26.5 -169.5l-166 -10q-6 140 -86 222.5t-232 82.5q-197 0 -322 -155t-167 -464q-44 -303 37.5 -459.5t287.5 -156.5q130 0 233.5 80.5t153.5 218.5l160 -19q-44 -173 -188 -292t-340 -129 l-49 -97q88 -6 121 -48t24 -99q-10 -73 -73.5 -114.5t-149.5 -41.5q-105 0 -168 49l39 74q47 -47 121 -47q103 0 116 78q6 45 -27 67t-112 25q-17 0 -8 12l78 142q-253 19 -365.5 219t-62.5 540z" />
<glyph unicode="&#xc8;" horiz-adv-x="1216" d="M123 0l213 1481h858l-20 -144h-705l-74 -518h639l-20 -143h-639l-76 -529l725 -2l-23 -145h-878zM512 1792l61 129l437 -197l-41 -86z" />
<glyph unicode="&#xc9;" horiz-adv-x="1216" d="M123 0l213 1481h858l-20 -144h-705l-74 -518h639l-20 -143h-639l-76 -529l725 -2l-23 -145h-878zM528 1724l494 197l20 -129l-497 -154z" />
<glyph unicode="&#xca;" horiz-adv-x="1216" d="M123 0l213 1481h858l-20 -144h-705l-74 -518h639l-20 -143h-639l-76 -529l725 -2l-23 -145h-878zM481 1683l271 226h112l203 -226h-158l-114 136l-166 -136h-148z" />
<glyph unicode="&#xcb;" horiz-adv-x="1216" d="M123 0l213 1481h858l-20 -144h-705l-74 -518h639l-20 -143h-639l-76 -529l725 -2l-23 -145h-878zM541 1710l24 176h168l-26 -176h-166zM848 1710l24 176h168l-24 -176h-168z" />
<glyph unicode="&#xcc;" horiz-adv-x="544" d="M123 0l211 1481h155l-210 -1481h-156zM178 1792l62 129l436 -197l-41 -86z" />
<glyph unicode="&#xcd;" horiz-adv-x="544" d="M123 0l211 1481h155l-210 -1481h-156zM195 1724l493 197l21 -129l-498 -154z" />
<glyph unicode="&#xce;" horiz-adv-x="544" d="M123 0l211 1481h155l-210 -1481h-156zM150 1683l270 226h112l203 -226h-157l-115 136l-166 -136h-147z" />
<glyph unicode="&#xcf;" horiz-adv-x="544" d="M123 0l211 1481h155l-210 -1481h-156zM209 1710l24 176h168l-26 -176h-166zM516 1710l25 176h168l-25 -176h-168z" />
<glyph unicode="&#xd0;" horiz-adv-x="1406" d="M102 676l11 133h190l96 672q184 0 301 -2q376 -4 523.5 -185t95.5 -544q-54 -377 -264 -563.5t-588 -186.5h-281l97 676h-181zM367 141h120q288 0 455 141.5t213 462.5q13 113 11 200.5t-28.5 153.5t-66.5 112t-102 74.5t-135.5 41t-167.5 12.5h-129l-76 -530h330 l-11 -133h-338z" />
<glyph unicode="&#xd1;" horiz-adv-x="1452" d="M123 0l213 1481h145l588 -1196l172 1196h154l-213 -1481h-138l-593 1208l-172 -1208h-156zM637 1819q43 36 79.5 53.5t86.5 17.5q46 0 121 -27.5t116 -27.5q61 0 136 53l16 -98q-77 -55 -168 -55q-52 0 -120 25.5t-109 25.5q-30 0 -57 -9t-41.5 -18t-41.5 -28z" />
<glyph unicode="&#xd2;" horiz-adv-x="1447" d="M160 735q52 364 239 565t465 201q276 0 405 -200t77 -564q-52 -361 -238 -559t-463 -198q-280 0 -408.5 197t-76.5 558zM330 735q-43 -308 45 -460t293 -152t335 151.5t173 460.5q45 314 -41 468.5t-291 154.5t-337 -155.5t-177 -467.5zM625 1792l61 129l436 -197 l-41 -86z" />
<glyph unicode="&#xd3;" horiz-adv-x="1447" d="M160 735q52 364 239 565t465 201q276 0 405 -200t77 -564q-52 -361 -238 -559t-463 -198q-280 0 -408.5 197t-76.5 558zM330 735q-43 -308 45 -460t293 -152t335 151.5t173 460.5q45 314 -41 468.5t-291 154.5t-337 -155.5t-177 -467.5zM641 1724l494 197l20 -129 l-498 -154z" />
<glyph unicode="&#xd4;" horiz-adv-x="1447" d="M160 735q52 364 239 565t465 201q276 0 405 -200t77 -564q-52 -361 -238 -559t-463 -198q-280 0 -408.5 197t-76.5 558zM330 735q-43 -308 45 -460t293 -152t335 151.5t173 460.5q45 314 -41 468.5t-291 154.5t-337 -155.5t-177 -467.5zM594 1683l270 226h113l203 -226 h-158l-115 136l-166 -136h-147z" />
<glyph unicode="&#xd5;" horiz-adv-x="1447" d="M160 735q52 364 239 565t465 201q276 0 405 -200t77 -564q-52 -361 -238 -559t-463 -198q-280 0 -408.5 197t-76.5 558zM330 735q-43 -308 45 -460t293 -152t335 151.5t173 460.5q45 314 -41 468.5t-291 154.5t-337 -155.5t-177 -467.5zM631 1819q43 36 79.5 53.5 t86.5 17.5q46 0 121 -27.5t116 -27.5q60 0 135 53l17 -98q-77 -55 -168 -55q-52 0 -120.5 25.5t-109.5 25.5q-29 0 -56 -9t-41 -17.5t-42 -28.5z" />
<glyph unicode="&#xd6;" horiz-adv-x="1447" d="M160 735q52 364 239 565t465 201q276 0 405 -200t77 -564q-52 -361 -238 -559t-463 -198q-280 0 -408.5 197t-76.5 558zM330 735q-43 -308 45 -460t293 -152t335 151.5t173 460.5q45 314 -41 468.5t-291 154.5t-337 -155.5t-177 -467.5zM653 1710l25 176h168l-27 -176 h-166zM961 1710l24 176h168l-25 -176h-167z" />
<glyph unicode="&#xd7;" horiz-adv-x="1040" d="M115 422l348 321l-258 324l100 90l256 -321l350 323l74 -90l-350 -324l258 -323l-100 -90l-256 321l-349 -321z" />
<glyph unicode="&#xd8;" horiz-adv-x="1441" d="M-4 63l192 197q-75 175 -34 475q52 364 239 565t465 201q257 0 389 -176l180 180l76 -88l-196 -200q75 -188 32 -480q-51 -361 -236.5 -559t-463.5 -198q-263 0 -387 174l-180 -181zM346 406l772 798q-78 156 -280 156q-392 0 -486 -578q-34 -216 -6 -376zM377 272 q82 -149 287 -149q193 0 310 137.5t163 421.5q38 214 10 389z" />
<glyph unicode="&#xd9;" horiz-adv-x="1382" d="M197 520l137 961h160l-142 -992q-26 -182 46 -275t237 -93q167 0 268 92t127 276l141 992h156l-141 -983q-72 -518 -572 -518q-258 0 -357 134.5t-60 405.5zM596 1792l61 129l437 -197l-41 -86z" />
<glyph unicode="&#xda;" horiz-adv-x="1382" d="M197 520l137 961h160l-142 -992q-26 -182 46 -275t237 -93q167 0 268 92t127 276l141 992h156l-141 -983q-72 -518 -572 -518q-258 0 -357 134.5t-60 405.5zM612 1724l494 197l20 -129l-497 -154z" />
<glyph unicode="&#xdb;" horiz-adv-x="1382" d="M197 520l137 961h160l-142 -992q-26 -182 46 -275t237 -93q167 0 268 92t127 276l141 992h156l-141 -983q-72 -518 -572 -518q-258 0 -357 134.5t-60 405.5zM567 1683l271 226h112l203 -226h-158l-114 136l-166 -136h-148z" />
<glyph unicode="&#xdc;" horiz-adv-x="1382" d="M197 520l137 961h160l-142 -992q-26 -182 46 -275t237 -93q167 0 268 92t127 276l141 992h156l-141 -983q-72 -518 -572 -518q-258 0 -357 134.5t-60 405.5zM625 1710l24 176h168l-26 -176h-166zM932 1710l24 176h168l-24 -176h-168z" />
<glyph unicode="&#xdd;" horiz-adv-x="1128" d="M152 1481h167l281 -703l475 703h168l-588 -848l-92 -633h-151l88 633zM475 1729l494 196l20 -129l-497 -154z" />
<glyph unicode="&#xde;" horiz-adv-x="1284" d="M123 0l213 1481h176l-45 -310h321q114 0 204 -24t153 -72.5t90 -126t12 -178.5q-30 -214 -179 -321t-376 -107h-344l-49 -342h-176zM369 483h325q157 0 254.5 71t118.5 218q19 135 -61.5 197.5t-243.5 62.5h-316z" />
<glyph unicode="&#xdf;" horiz-adv-x="1159" d="M119 0l129 922h-129l16 120h127q30 199 155 319t320 120q83 0 142.5 -23t90 -63t42 -88.5t4.5 -104.5q-6 -38 -17.5 -69.5t-32 -57.5t-39 -44.5t-52 -39t-55.5 -32.5t-64 -33q-76 -41 -101.5 -62.5t-31.5 -58.5q-4 -37 15.5 -54t84.5 -40q113 -48 154 -74 q160 -102 141 -291l-2 -20q-24 -164 -139 -255t-275 -91q-69 0 -137.5 19t-110.5 52l72 111q45 -32 84.5 -48t97.5 -16q109 0 181 56.5t85 156.5q7 44 -2 79.5t-25.5 58.5t-49.5 44.5t-59.5 33t-71.5 28.5q-43 18 -68.5 32t-55.5 39.5t-41 63.5t-5 88q10 73 56 123.5 t142 102.5q7 5 33.5 20t35.5 21.5t30 21.5t30.5 26t22 28.5t19 36.5t9.5 42q11 75 -33 118.5t-136 43.5q-113 0 -192 -75.5t-99 -217.5l-150 -1069h-145z" />
<glyph unicode="&#xe0;" horiz-adv-x="1062" d="M61 283q26 178 152.5 262t380.5 90l188 6l13 88q17 107 -40.5 167t-166.5 60q-95 0 -171 -50t-106 -142h-141q29 136 148.5 225.5t293.5 89.5q183 0 270 -91t64 -251l-104 -737h-133l16 197q-134 -217 -381 -217q-148 0 -225.5 81t-57.5 222zM215 297 q-12 -92 40.5 -144.5t150.5 -52.5q107 0 213.5 77t119.5 169l27 189l-156 -3q-190 -5 -283 -59t-112 -176zM375 1370l61 129l436 -196l-41 -86z" />
<glyph unicode="&#xe1;" horiz-adv-x="1062" d="M61 283q26 178 152.5 262t380.5 90l188 6l13 88q17 107 -40.5 167t-166.5 60q-95 0 -171 -50t-106 -142h-141q29 136 148.5 225.5t293.5 89.5q183 0 270 -91t64 -251l-104 -737h-133l16 197q-134 -217 -381 -217q-148 0 -225.5 81t-57.5 222zM215 297 q-12 -92 40.5 -144.5t150.5 -52.5q107 0 213.5 77t119.5 169l27 189l-156 -3q-190 -5 -283 -59t-112 -176zM391 1303l494 196l20 -129l-497 -153z" />
<glyph unicode="&#xe2;" horiz-adv-x="1062" d="M61 283q26 178 152.5 262t380.5 90l188 6l13 88q17 107 -40.5 167t-166.5 60q-95 0 -171 -50t-106 -142h-141q29 136 148.5 225.5t293.5 89.5q183 0 270 -91t64 -251l-104 -737h-133l16 197q-134 -217 -381 -217q-148 0 -225.5 81t-57.5 222zM215 297 q-12 -92 40.5 -144.5t150.5 -52.5q107 0 213.5 77t119.5 169l27 189l-156 -3q-190 -5 -283 -59t-112 -176zM346 1262l270 225h113l203 -225h-158l-115 135l-165 -135h-148z" />
<glyph unicode="&#xe3;" horiz-adv-x="1062" d="M61 283q26 178 152.5 262t380.5 90l188 6l13 88q17 107 -40.5 167t-166.5 60q-95 0 -171 -50t-106 -142h-141q29 136 148.5 225.5t293.5 89.5q183 0 270 -91t64 -251l-104 -737h-133l16 197q-134 -217 -381 -217q-148 0 -225.5 81t-57.5 222zM215 297 q-12 -92 40.5 -144.5t150.5 -52.5q107 0 213.5 77t119.5 169l27 189l-156 -3q-190 -5 -283 -59t-112 -176zM381 1397q43 36 79.5 53.5t86.5 17.5q46 0 121 -27.5t116 -27.5q61 0 136 53l16 -98q-77 -55 -168 -55q-52 0 -120 25.5t-109 25.5q-30 0 -57 -9t-41.5 -18 t-41.5 -28z" />
<glyph unicode="&#xe4;" horiz-adv-x="1062" d="M61 283q26 178 152.5 262t380.5 90l188 6l13 88q17 107 -40.5 167t-166.5 60q-95 0 -171 -50t-106 -142h-141q29 136 148.5 225.5t293.5 89.5q183 0 270 -91t64 -251l-104 -737h-133l16 197q-134 -217 -381 -217q-148 0 -225.5 81t-57.5 222zM215 297 q-12 -92 40.5 -144.5t150.5 -52.5q107 0 213.5 77t119.5 169l27 189l-156 -3q-190 -5 -283 -59t-112 -176zM403 1288l25 176h168l-27 -176h-166zM711 1288l24 176h168l-24 -176h-168z" />
<glyph unicode="&#xe5;" horiz-adv-x="1062" d="M61 283q26 178 152.5 262t380.5 90l188 6l13 88q17 107 -40.5 167t-166.5 60q-95 0 -171 -50t-106 -142h-141q29 136 148.5 225.5t293.5 89.5q183 0 270 -91t64 -251l-104 -737h-133l16 197q-134 -217 -381 -217q-148 0 -225.5 81t-57.5 222zM215 297 q-12 -92 40.5 -144.5t150.5 -52.5q107 0 213.5 77t119.5 169l27 189l-156 -3q-190 -5 -283 -59t-112 -176zM463 1399q12 83 78.5 141.5t146.5 58.5q82 0 130.5 -59t35.5 -145q-10 -87 -76.5 -147t-148.5 -60t-130 61t-36 150zM551 1395q-6 -46 20.5 -80.5t69.5 -34.5 q42 0 77.5 34.5t43.5 80.5q6 49 -19.5 79.5t-70.5 30.5q-43 0 -78.5 -31t-42.5 -79z" />
<glyph unicode="&#xe6;" horiz-adv-x="1777" d="M61 276q22 152 153.5 242.5t369.5 108.5l202 16l11 82q17 110 -36.5 173t-170.5 63q-165 0 -301 -179l-123 49q163 248 455 248q260 0 307 -198q142 198 381 198q203 0 305 -155t63 -428l-766 -2q-13 -98 17.5 -188t99 -147t156.5 -57q60 0 110.5 15t93 45.5t69 56.5 t63.5 68l94 -60q-80 -119 -199.5 -183t-265.5 -64q-75 0 -135.5 20t-102 56t-66 67.5t-48.5 73.5q-5 7 -15 0q-33 -35 -60.5 -60.5t-71 -57.5t-87.5 -51.5t-104 -33.5t-125 -14q-149 0 -221 79.5t-52 216.5zM219 285q-12 -88 37 -140.5t150 -48.5q126 6 225 78.5t112 171.5 l27 191l-168 -13q-173 -14 -271.5 -74t-111.5 -165zM934 602l602 -2q14 96 -10.5 178t-86 133.5t-147.5 51.5q-131 0 -233 -99.5t-125 -261.5z" />
<glyph unicode="&#xe7;" horiz-adv-x="1038" d="M98 524q36 247 180.5 401t348.5 154q153 0 248.5 -90t95.5 -250l-142 -4q-9 103 -66 158t-147 55q-142 0 -241 -114t-127 -306q-28 -193 39 -308.5t209 -115.5q92 0 167 57t109 154h135q-43 -152 -151 -238t-248 -95l-49 -97q88 -6 121 -48t24 -99q-10 -73 -73.5 -114.5 t-149.5 -41.5q-105 0 -168 49l39 74q47 -47 121 -47q103 0 116 78q6 45 -27 67t-112 25q-17 0 -8 12l78 142q-180 19 -268 167t-54 375z" />
<glyph unicode="&#xe8;" horiz-adv-x="1067" d="M96 520q36 256 176.5 407.5t350.5 151.5q203 0 294.5 -138.5t55.5 -381.5l-8 -67h-719q-23 -169 39 -276t209 -107q203 0 290 194h146q-39 -107 -111 -181t-158.5 -108t-183.5 -34q-207 0 -312 144.5t-69 395.5zM264 606h567q23 155 -34.5 250.5t-194.5 95.5 q-95 0 -169.5 -52t-115 -128.5t-53.5 -165.5zM385 1370l61 129l437 -196l-41 -86z" />
<glyph unicode="&#xe9;" horiz-adv-x="1067" d="M96 520q36 256 176.5 407.5t350.5 151.5q203 0 294.5 -138.5t55.5 -381.5l-8 -67h-719q-23 -169 39 -276t209 -107q203 0 290 194h146q-39 -107 -111 -181t-158.5 -108t-183.5 -34q-207 0 -312 144.5t-69 395.5zM264 606h567q23 155 -34.5 250.5t-194.5 95.5 q-95 0 -169.5 -52t-115 -128.5t-53.5 -165.5zM401 1303l494 196l20 -129l-497 -153z" />
<glyph unicode="&#xea;" horiz-adv-x="1067" d="M96 520q36 256 176.5 407.5t350.5 151.5q203 0 294.5 -138.5t55.5 -381.5l-8 -67h-719q-23 -169 39 -276t209 -107q203 0 290 194h146q-39 -107 -111 -181t-158.5 -108t-183.5 -34q-207 0 -312 144.5t-69 395.5zM264 606h567q23 155 -34.5 250.5t-194.5 95.5 q-95 0 -169.5 -52t-115 -128.5t-53.5 -165.5zM356 1262l271 225h112l203 -225h-158l-114 135l-166 -135h-148z" />
<glyph unicode="&#xeb;" horiz-adv-x="1067" d="M96 520q36 256 176.5 407.5t350.5 151.5q203 0 294.5 -138.5t55.5 -381.5l-8 -67h-719q-23 -169 39 -276t209 -107q203 0 290 194h146q-39 -107 -111 -181t-158.5 -108t-183.5 -34q-207 0 -312 144.5t-69 395.5zM264 606h567q23 155 -34.5 250.5t-194.5 95.5 q-95 0 -169.5 -52t-115 -128.5t-53.5 -165.5zM414 1288l24 176h168l-26 -176h-166zM721 1288l24 176h168l-24 -176h-168z" />
<glyph unicode="&#xec;" horiz-adv-x="516" d="M100 1370l62 129l436 -196l-41 -86zM106 0l152 1059h156l-154 -1059h-154z" />
<glyph unicode="&#xed;" horiz-adv-x="516" d="M106 0l152 1059h156l-154 -1059h-154zM117 1303l493 196l21 -129l-498 -153z" />
<glyph unicode="&#xee;" horiz-adv-x="516" d="M70 1262l270 225h113l202 -225h-157l-115 135l-166 -135h-147zM106 0l152 1059h156l-154 -1059h-154z" />
<glyph unicode="&#xef;" horiz-adv-x="516" d="M106 0l152 1059h156l-154 -1059h-154zM129 1288l25 176h168l-27 -176h-166zM436 1288l25 176h168l-25 -176h-168z" />
<glyph unicode="&#xf0;" horiz-adv-x="1140" d="M94 504q32 232 184.5 383t352.5 151q145 0 223 -100q-56 194 -219 328l-324 -181l-32 76l286 156q-79 52 -203 106l113 80q116 -46 223 -112l213 116l27 -77l-170 -95q350 -281 274 -811q-36 -245 -186 -394.5t-369 -149.5q-209 0 -318 147t-75 377zM252 510 q-26 -179 47.5 -294.5t212.5 -115.5q138 0 241 115.5t128 294.5q26 178 -45 294t-209 116q-139 0 -244.5 -116t-130.5 -294z" />
<glyph unicode="&#xf1;" horiz-adv-x="1146" d="M98 0l152 1059h147l-20 -150q123 166 340 166q152 0 236 -99.5t57 -281.5l-99 -694h-155l98 680q18 124 -34.5 192t-157.5 68q-75 0 -140 -23t-111.5 -74.5t-56.5 -123.5l-102 -719h-154zM442 1397q43 36 79.5 53.5t86.5 17.5q46 0 121.5 -27.5t116.5 -27.5q60 0 135 53 l16 -98q-77 -55 -168 -55q-52 0 -120 25.5t-109 25.5q-29 0 -56 -9t-41 -17.5t-42 -28.5z" />
<glyph unicode="&#xf2;" horiz-adv-x="1091" d="M98 522q36 249 179.5 403t351.5 154q138 0 229 -71.5t125.5 -195.5t11.5 -286q-36 -246 -176.5 -396t-349.5 -150q-210 0 -308.5 149t-62.5 393zM252 528q-26 -187 34 -303t206 -116q97 0 171.5 55.5t117 148t59.5 215.5q16 124 1 218t-75 149t-158 55q-145 0 -237 -116 t-119 -306zM391 1370l62 129l436 -196l-41 -86z" />
<glyph unicode="&#xf3;" horiz-adv-x="1091" d="M98 522q36 249 179.5 403t351.5 154q138 0 229 -71.5t125.5 -195.5t11.5 -286q-36 -246 -176.5 -396t-349.5 -150q-210 0 -308.5 149t-62.5 393zM252 528q-26 -187 34 -303t206 -116q97 0 171.5 55.5t117 148t59.5 215.5q16 124 1 218t-75 149t-158 55q-145 0 -237 -116 t-119 -306zM408 1303l493 196l21 -129l-498 -153z" />
<glyph unicode="&#xf4;" horiz-adv-x="1091" d="M98 522q36 249 179.5 403t351.5 154q138 0 229 -71.5t125.5 -195.5t11.5 -286q-36 -246 -176.5 -396t-349.5 -150q-210 0 -308.5 149t-62.5 393zM252 528q-26 -187 34 -303t206 -116q97 0 171.5 55.5t117 148t59.5 215.5q16 124 1 218t-75 149t-158 55q-145 0 -237 -116 t-119 -306zM362 1262l271 225h112l203 -225h-157l-115 135l-166 -135h-148z" />
<glyph unicode="&#xf5;" horiz-adv-x="1091" d="M98 522q36 249 179.5 403t351.5 154q138 0 229 -71.5t125.5 -195.5t11.5 -286q-36 -246 -176.5 -396t-349.5 -150q-210 0 -308.5 149t-62.5 393zM252 528q-26 -187 34 -303t206 -116q97 0 171.5 55.5t117 148t59.5 215.5q16 124 1 218t-75 149t-158 55q-145 0 -237 -116 t-119 -306zM397 1397q43 36 79.5 53.5t86.5 17.5q46 0 121.5 -27.5t116.5 -27.5q60 0 135 53l16 -98q-77 -55 -168 -55q-52 0 -120 25.5t-109 25.5q-29 0 -56 -9t-41 -17.5t-42 -28.5z" />
<glyph unicode="&#xf6;" horiz-adv-x="1091" d="M98 522q36 249 179.5 403t351.5 154q138 0 229 -71.5t125.5 -195.5t11.5 -286q-36 -246 -176.5 -396t-349.5 -150q-210 0 -308.5 149t-62.5 393zM252 528q-26 -187 34 -303t206 -116q97 0 171.5 55.5t117 148t59.5 215.5q16 124 1 218t-75 149t-158 55q-145 0 -237 -116 t-119 -306zM420 1288l24 176h168l-26 -176h-166zM727 1288l25 176h168l-25 -176h-168z" />
<glyph unicode="&#xf7;" horiz-adv-x="1069" d="M150 680l18 127l811 2l-18 -127zM397 291l31 211h205l-29 -211h-207zM498 989l28 209h209l-30 -209h-207z" />
<glyph unicode="&#xf8;" horiz-adv-x="1064" d="M-27 63l111 107q-72 140 -41 352q37 250 180.5 403.5t351.5 153.5q197 0 297 -143l134 131l71 -76l-157 -151q47 -134 20 -314q-34 -246 -175 -396t-351 -150q-172 0 -271 104l-98 -94zM199 528q-19 -139 8 -237l553 538q-59 121 -205 121q-145 0 -237 -116t-119 -306z M252 190q65 -81 184 -81q146 0 235 114.5t115 304.5q16 110 5 187z" />
<glyph unicode="&#xf9;" horiz-adv-x="1140" d="M137 346l105 717h153l-100 -703q-10 -68 5.5 -118.5t49.5 -77.5t73 -40t83 -13q107 0 191.5 68t103.5 194l98 690h154l-152 -1061h-125l12 201q-27 -72 -80 -123.5t-117 -75t-132 -22.5q-51 0 -100 12t-94.5 40t-77.5 68.5t-46.5 103.5t-3.5 140zM412 1370l61 129 l436 -196l-41 -86z" />
<glyph unicode="&#xfa;" horiz-adv-x="1140" d="M137 346l105 717h153l-100 -703q-10 -68 5.5 -118.5t49.5 -77.5t73 -40t83 -13q107 0 191.5 68t103.5 194l98 690h154l-152 -1061h-125l12 201q-27 -72 -80 -123.5t-117 -75t-132 -22.5q-51 0 -100 12t-94.5 40t-77.5 68.5t-46.5 103.5t-3.5 140zM428 1303l494 196 l20 -129l-498 -153z" />
<glyph unicode="&#xfb;" horiz-adv-x="1140" d="M137 346l105 717h153l-100 -703q-10 -68 5.5 -118.5t49.5 -77.5t73 -40t83 -13q107 0 191.5 68t103.5 194l98 690h154l-152 -1061h-125l12 201q-27 -72 -80 -123.5t-117 -75t-132 -22.5q-51 0 -100 12t-94.5 40t-77.5 68.5t-46.5 103.5t-3.5 140zM381 1262l270 225h113 l203 -225h-158l-115 135l-166 -135h-147z" />
<glyph unicode="&#xfc;" horiz-adv-x="1140" d="M137 346l105 717h153l-100 -703q-10 -68 5.5 -118.5t49.5 -77.5t73 -40t83 -13q107 0 191.5 68t103.5 194l98 690h154l-152 -1061h-125l12 201q-27 -72 -80 -123.5t-117 -75t-132 -22.5q-51 0 -100 12t-94.5 40t-77.5 68.5t-46.5 103.5t-3.5 140zM440 1288l25 176h168 l-27 -176h-166zM748 1288l24 176h168l-25 -176h-167z" />
<glyph unicode="&#xfd;" horiz-adv-x="1028" d="M-23 -315l15 104h104q66 -2 113 17.5t67.5 43t38.5 58.5l56 112l-240 1039h156l184 -852l424 852h152l-588 -1159q-70 -131 -152 -184.5t-188 -53.5q-49 0 -84.5 6t-46.5 12zM387 1303l494 196l20 -129l-498 -153z" />
<glyph unicode="&#xfe;" horiz-adv-x="1153" d="M51 -330l258 1811h154l-82 -572q67 69 112 100q103 70 228 70q183 0 278 -137t58 -397q-36 -263 -175.5 -414t-334.5 -151q-158 0 -254 100q-15 17 -21.5 14.5t-9.5 -26.5l-57 -398h-154zM287 231q104 -135 235 -135q141 0 244 116.5t133 330.5q29 210 -41 314t-203 104 q-112 0 -199 -74.5t-100 -159.5z" />
<glyph unicode="&#xff;" horiz-adv-x="1028" d="M-23 -315l15 104h104q66 -2 113 17.5t67.5 43t38.5 58.5l56 112l-240 1039h156l184 -852l424 852h152l-588 -1159q-70 -131 -152 -184.5t-188 -53.5q-49 0 -84.5 6t-46.5 12zM399 1288l25 176h168l-27 -176h-166zM707 1288l24 176h168l-25 -176h-167z" />
<glyph unicode="&#x152;" horiz-adv-x="2162" d="M160 735q54 365 243.5 565.5t473.5 200.5q285 0 380 -231l60 211h821l-20 -142h-693l-73 -522h514l-21 -139h-514l-76 -537h717l-22 -141h-850l4 211q-164 -231 -453 -231q-283 0 -413 197t-78 558zM344 735q-87 -614 326 -614q203 0 323 150t164 464q46 318 -31.5 472.5 t-279.5 154.5q-412 0 -502 -627z" />
<glyph unicode="&#x153;" horiz-adv-x="1900" d="M98 522q35 248 189 402.5t364 154.5q126 0 215 -61t131 -170q11 -25 31 0q70 108 175.5 169.5t226.5 61.5q211 0 309.5 -155t60.5 -428h-762q-25 -165 55.5 -278.5t217.5 -113.5q192 0 329 183l99 -60q-94 -129 -205.5 -188t-255.5 -59q-123 0 -212 58.5t-134 162.5 q-4 10 -8.5 13t-11 -1.5t-15.5 -17.5q-75 -103 -178.5 -159t-224.5 -56q-215 0 -323 149t-73 393zM256 528q-28 -196 42.5 -311t215.5 -115q146 0 245.5 114t127.5 312t-40.5 314t-211.5 116q-145 0 -247.5 -116t-131.5 -314zM1059 602l604 -2q21 149 -46.5 255t-197.5 106 q-136 0 -237 -100t-123 -259z" />
<glyph unicode="&#x178;" horiz-adv-x="1128" d="M152 1481h167l281 -703l475 703h168l-588 -848l-92 -633h-151l88 633zM487 1714l25 176h168l-27 -176h-166zM795 1714l24 176h168l-24 -176h-168z" />
<glyph unicode="&#x2c6;" horiz-adv-x="600" d="M111 1262l270 225h113l202 -225h-157l-115 135l-166 -135h-147z" />
<glyph unicode="&#x2dc;" horiz-adv-x="632" d="M158 1397q43 36 79.5 53.5t86.5 17.5q46 0 121 -27.5t116 -27.5q60 0 135 53l17 -98q-77 -55 -168 -55q-52 0 -120.5 25.5t-109.5 25.5q-29 0 -56 -9t-41 -17.5t-42 -28.5z" />
<glyph unicode="&#x2000;" horiz-adv-x="1010" />
<glyph unicode="&#x2001;" horiz-adv-x="2021" />
<glyph unicode="&#x2002;" horiz-adv-x="1010" />
<glyph unicode="&#x2003;" horiz-adv-x="2021" />
<glyph unicode="&#x2004;" horiz-adv-x="673" />
<glyph unicode="&#x2005;" horiz-adv-x="505" />
<glyph unicode="&#x2006;" horiz-adv-x="336" />
<glyph unicode="&#x2007;" horiz-adv-x="336" />
<glyph unicode="&#x2008;" horiz-adv-x="252" />
<glyph unicode="&#x2009;" horiz-adv-x="404" />
<glyph unicode="&#x200a;" horiz-adv-x="112" />
<glyph unicode="&#x2010;" horiz-adv-x="743" d="M121 463l16 131l479 2l-16 -131z" />
<glyph unicode="&#x2011;" horiz-adv-x="743" d="M121 463l16 131l479 2l-16 -131z" />
<glyph unicode="&#x2012;" horiz-adv-x="743" d="M121 463l16 131l479 2l-16 -131z" />
<glyph unicode="&#x2013;" horiz-adv-x="1075" d="M119 449l18 131l811 2l-18 -131z" />
<glyph unicode="&#x2014;" horiz-adv-x="1679" d="M117 449l20 131l1415 2l-20 -131z" />
<glyph unicode="&#x2018;" horiz-adv-x="481" d="M135 1087l19 183l184 276h80l-129 -248l80 -2l-21 -209h-213z" />
<glyph unicode="&#x2019;" horiz-adv-x="419" d="M184 1022l125 248l-84 4l15 207h217l-13 -181l-178 -278h-82z" />
<glyph unicode="&#x201a;" horiz-adv-x="471" d="M-23 -248l144 246l-82 4l31 209h215l-25 -180l-201 -279h-82z" />
<glyph unicode="&#x201c;" horiz-adv-x="813" d="M332 1022l12 182l178 277h82l-39 -76l49 76h82l-125 -246l84 -4l-14 -209h-309z" />
<glyph unicode="&#x201d;" horiz-adv-x="763" d="M184 1022l125 248l-84 4l15 207h217l-13 -181l-178 -278h-82zM530 1022l125 248l-84 4l15 207h215l-10 -181l-179 -278h-82z" />
<glyph unicode="&#x201e;" horiz-adv-x="827" d="M-23 -248l144 246l-82 4l31 209h215l-25 -180l-201 -279h-82zM334 -248l141 246l-82 4l31 209h217l-27 -180l-200 -279h-80z" />
<glyph unicode="&#x2022;" horiz-adv-x="630" d="M160 754q0 76 54 130t130 54t130 -54t54 -130q0 -77 -54 -132t-130 -55t-130 55t-54 132z" />
<glyph unicode="&#x2026;" horiz-adv-x="1497" d="M57 0l33 219h189l-31 -219h-191zM590 0l33 219h188l-31 -219h-190zM1122 0l33 219h188l-30 -219h-191z" />
<glyph unicode="&#x202f;" horiz-adv-x="404" />
<glyph unicode="&#x2039;" horiz-adv-x="530" d="M76 514l313 383h90l-258 -383l148 -367h-90z" />
<glyph unicode="&#x203a;" horiz-adv-x="530" d="M51 147l252 367l-147 383h88l202 -383l-309 -367h-86z" />
<glyph unicode="&#x205f;" horiz-adv-x="505" />
<glyph unicode="&#x20ac;" horiz-adv-x="1132" d="M-27 528l17 107h162q1 12 3 33t4 39t5 34q11 72 20 111h-164l17 106h176q80 258 245 400.5t386 142.5q97 0 180.5 -36t142.5 -101l-120 -107q-99 103 -211 103q-156 0 -268 -101t-175 -301l393 3l-16 -107l-405 -2q-11 -48 -21 -113q-6 -39 -10 -104l405 2l-16 -109h-393 q6 -198 93.5 -299.5t250.5 -101.5q131 0 252 94l69 -106q-169 -135 -360 -135q-226 0 -352.5 143.5t-132.5 404.5h-177z" />
<glyph unicode="&#x2122;" horiz-adv-x="1800" d="M61 831l15 95h647l-12 -95h-269l-118 -831h-97l119 831h-285zM780 0l133 926h131l162 -793l396 793h129l-134 -926h-100l109 760l-371 -760h-94l-152 752l-108 -752h-101z" />
<glyph unicode="&#x25fc;" horiz-adv-x="1054" d="M0 0v1055h1055v-1055h-1055z" />
</font>
</defs>
</svg>
